<svg width="514" height="371" viewBox="0 0 514 371" fill="none" xmlns="http://www.w3.org/2000/svg">
<path d="M328.628 367.572C288.666 376.953 278.082 324.522 239.382 324.887C188.746 325.366 132.881 379.012 86.3047 369.861C39.032 360.572 15.0713 319.317 5.33719 278.9C-5.19094 235.187 -1.37563 183.319 30.2947 137.303C61.5926 91.8274 117.527 57.7236 172.89 35.4498C221.946 15.7133 269.241 26.3509 319.015 21.1432C367.134 16.1086 422.35 -10.6794 460.611 5.34619C498.939 21.3993 512.883 62.7365 513.04 102.409C513.179 137.497 481.808 172.59 461.413 208.004C445.829 235.063 428.683 260.123 407.66 285.387C383.296 314.666 366.75 358.624 328.628 367.572Z" fill="#484C9A"/>
</svg>
